<svg width="48" height="48" viewBox="0 0 48 48" fill="none" xmlns="http://www.w3.org/2000/svg">
<mask id="path-1-outside-1_1437_14006" maskUnits="userSpaceOnUse" x="7" y="10" width="34" height="30" fill="black">
<rect fill="white" x="7" y="10" width="34" height="30"/>
<path d="M33 14C35.2091 14 37 15.7909 37 18V27.0078C37 29.2169 35.2091 31.0078 33 31.0078H27.6312C27.2583 31.0078 26.9164 31.2153 26.7442 31.546L25.7324 33.4893L24.8272 35.2275C24.45 35.9517 23.4108 35.943 23.0457 35.2126L22.1699 33.46L21.2198 31.5605C21.0504 31.2218 20.7042 31.0078 20.3254 31.0078H15C12.7909 31.0078 11 29.2169 11 27.0078V18C11 15.7909 12.7909 14 15 14H33Z"/>
</mask>
<path d="M37 18L41 18L37 18ZM37 27.0078L41 27.0079V27.0078H37ZM33 31.0078L33 35.0078H33L33 31.0078ZM25.7324 33.4893L29.2801 35.3369L29.2803 35.3365L25.7324 33.4893ZM22.1699 33.46L25.748 31.6719L25.7473 31.6705L22.1699 33.46ZM11 27.0078L7 27.0078L7 27.0079L11 27.0078ZM11 18H7H11ZM15 14L15 10L15 10L15 14ZM26.7442 31.546L23.1963 29.6987L26.7442 31.546ZM33 14V18V18L37 18L41 18C41 13.5817 37.4183 10 33 10V14ZM37 18H33V27.0078H37H41V18H37ZM37 27.0078L33 27.0077L33 27.0078L33 31.0078L33 35.0078C37.4183 35.0078 40.9999 31.426 41 27.0079L37 27.0078ZM33 31.0078V27.0078H27.6312V31.0078V35.0078H33V31.0078ZM26.7442 31.546L23.1963 29.6987L22.1845 31.642L25.7324 33.4893L29.2803 35.3365L30.2921 33.3933L26.7442 31.546ZM25.7324 33.4893L22.1847 31.6417L21.2795 33.3798L24.8272 35.2275L28.3749 37.0751L29.2801 35.3369L25.7324 33.4893ZM23.0457 35.2126L26.6238 33.4245L25.748 31.6719L22.1699 33.46L18.5918 35.248L19.4676 37.0006L23.0457 35.2126ZM22.1699 33.46L25.7473 31.6705L24.7972 29.771L21.2198 31.5605L17.6424 33.3499L18.5925 35.2494L22.1699 33.46ZM20.3254 31.0078V27.0078H15V31.0078V35.0078H20.3254V31.0078ZM15 31.0078V27.0078L15 27.0077L11 27.0078L7 27.0079C7.00007 31.426 10.5817 35.0078 15 35.0078V31.0078ZM11 27.0078H15V18H11H7V27.0078H11ZM11 18L15 18L15 18L15 14L15 10C10.5817 10 7 13.5817 7 18L11 18ZM15 14V18H33V14V10H15V14ZM21.2198 31.5605L24.7972 29.771C23.9501 28.0775 22.219 27.0078 20.3254 27.0078V31.0078V35.0078C19.1893 35.0078 18.1506 34.366 17.6424 33.3499L21.2198 31.5605ZM24.8272 35.2275L21.2795 33.3798C22.411 31.2071 25.5288 31.2332 26.6238 33.4245L23.0457 35.2126L19.4676 37.0006C21.2927 40.6528 26.489 40.6963 28.3749 37.0751L24.8272 35.2275ZM27.6312 31.0078V27.0078C25.7668 27.0078 24.0573 28.0451 23.1963 29.6987L26.7442 31.546L30.2921 33.3933C29.7755 34.3854 28.7498 35.0078 27.6312 35.0078V31.0078Z" fill="#F4F4F4" mask="url(#path-1-outside-1_1437_14006)"/>
<circle cx="17" cy="22.4902" r="2" fill="#F4F4F4"/>
<circle cx="24" cy="22.4902" r="2" fill="#F4F4F4"/>
<circle cx="31" cy="22.4902" r="2" fill="#F4F4F4"/>
</svg>
