<svg width="24" height="24" viewBox="0 0 24 24" fill="none" xmlns="http://www.w3.org/2000/svg">
<path d="M13.9999 10.0002L10.9999 13.0002M20.2879 3.03122C20.3828 2.99847 20.4849 2.99309 20.5827 3.01567C20.6806 3.03825 20.77 3.0879 20.841 3.15893C20.9119 3.22996 20.9614 3.31952 20.9838 3.41736C21.0063 3.5152 21.0007 3.61738 20.9679 3.71222L15.0439 20.6422C15.0084 20.7434 14.9434 20.8316 14.8572 20.8954C14.771 20.9592 14.6676 20.9956 14.5605 20.9999C14.4533 21.0042 14.3473 20.9763 14.2563 20.9196C14.1652 20.863 14.0933 20.7802 14.0499 20.6822L10.8309 13.4402C10.7767 13.3198 10.6803 13.2234 10.5599 13.1692L3.31786 9.94922C3.22016 9.9056 3.13778 9.83368 3.08137 9.74275C3.02495 9.65183 2.9971 9.54608 3.00141 9.43917C3.00572 9.33225 3.04198 9.22909 3.10553 9.14299C3.16907 9.0569 3.25697 8.99184 3.35786 8.95622L20.2879 3.03122Z" stroke="#F4F4F4" stroke-width="1.5" stroke-linecap="round" stroke-linejoin="round"/>
</svg>
