<svg width="351" height="54" viewBox="0 0 351 54" fill="none" xmlns="http://www.w3.org/2000/svg">
<mask id="path-1-inside-1_5566_49550" fill="white">
<path d="M342.075 0C346.493 0.000151396 350.075 3.58182 350.075 8V46C350.075 50.4182 346.493 53.9998 342.075 54H18.2041C13.786 53.9998 10.2041 50.4181 10.2041 46V27.4315C10.2041 27.0656 10.0042 26.7289 9.68301 26.5536L1.63639 22.1639C0.941631 21.7849 0.941592 20.7873 1.63633 20.4082L9.68307 16.0177C10.0043 15.8424 10.2041 15.5058 10.2041 15.1399V8C10.2041 3.58186 13.786 0.000220119 18.2041 0H342.075Z"/>
</mask>
<path d="M342.075 0C346.493 0.000151396 350.075 3.58182 350.075 8V46C350.075 50.4182 346.493 53.9998 342.075 54H18.2041C13.786 53.9998 10.2041 50.4181 10.2041 46V27.4315C10.2041 27.0656 10.0042 26.7289 9.68301 26.5536L1.63639 22.1639C0.941631 21.7849 0.941592 20.7873 1.63633 20.4082L9.68307 16.0177C10.0043 15.8424 10.2041 15.5058 10.2041 15.1399V8C10.2041 3.58186 13.786 0.000220119 18.2041 0H342.075Z" fill="#F4F4F4"/>
<path d="M342.075 0L342.075 -1H342.075V0ZM350.075 8H351.075H350.075ZM342.075 54V55H342.075L342.075 54ZM18.2041 54L18.2041 55H18.2041V54ZM10.2041 46H9.2041H10.2041ZM18.2041 0V-1H18.2041L18.2041 0ZM9.68307 16.0177L10.162 16.8955L9.68307 16.0177ZM1.63639 22.1639L1.15749 23.0418L1.63639 22.1639ZM1.63633 20.4082L1.15736 19.5304L1.63633 20.4082ZM9.68301 26.5536L9.2041 27.4315L9.68301 26.5536ZM342.075 0L342.075 1C345.941 1.00013 349.075 4.13413 349.075 8H350.075H351.075C351.075 3.0295 347.046 -0.99983 342.075 -1L342.075 0ZM350.075 8H349.075V46H350.075H351.075V8H350.075ZM350.075 46H349.075C349.075 49.8659 345.941 52.9999 342.075 53L342.075 54L342.075 55C347.046 54.9998 351.075 50.9705 351.075 46H350.075ZM342.075 54V53H18.2041V54V55H342.075V54ZM18.2041 54L18.2042 53C14.3383 52.9998 11.2041 49.8658 11.2041 46H10.2041H9.2041C9.2041 50.9705 13.2338 54.9998 18.2041 55L18.2041 54ZM10.2041 46H11.2041V27.4315H10.2041H9.2041V46H10.2041ZM9.68301 26.5536L10.1619 25.6757L2.1153 21.2861L1.63639 22.1639L1.15749 23.0418L9.2041 27.4315L9.68301 26.5536ZM1.63633 20.4082L2.1153 21.2861L10.162 16.8955L9.68307 16.0177L9.2041 15.1399L1.15736 19.5304L1.63633 20.4082ZM10.2041 15.1399H11.2041V8H10.2041H9.2041V15.1399H10.2041ZM10.2041 8H11.2041C11.2041 4.13419 14.3383 1.00019 18.2042 1L18.2041 0L18.2041 -1C13.2338 -0.999752 9.2041 3.02952 9.2041 8H10.2041ZM18.2041 0V1H342.075V0V-1H18.2041V0ZM9.68307 16.0177L10.162 16.8955C10.8044 16.545 11.2041 15.8716 11.2041 15.1399H10.2041H9.2041L9.2041 15.1399L9.68307 16.0177ZM1.63639 22.1639L2.1153 21.2861H2.1153L1.63633 20.4082L1.15736 19.5304C-0.232118 20.2885 -0.232034 22.2838 1.15749 23.0418L1.63639 22.1639ZM10.2041 27.4315H11.2041C11.2041 26.6996 10.8044 26.0262 10.1619 25.6757L9.68301 26.5536L9.2041 27.4315H10.2041Z" fill="#E0E0E0" mask="url(#path-1-inside-1_5566_49550)"/>
<path d="M22.1143 12.6113C23.9053 12.625 25.1768 14.2656 25.1904 16.8496C25.1768 19.4336 23.9053 21.0742 22.1143 21.0742C20.3096 21.0742 19.0518 19.4336 19.0518 16.8496C19.0518 14.2656 20.3096 12.625 22.1143 12.6113ZM22.1143 13.5684C20.9111 13.582 20.0635 14.8672 20.0635 16.8496C20.0635 18.832 20.9111 20.1172 22.1143 20.1172C23.3311 20.1172 24.1514 18.832 24.1514 16.8496C24.1514 14.8672 23.3311 13.582 22.1143 13.5684ZM28.2666 11.668V16.5215H30.3037V17.4512H28.2666V23.8223H27.2002V11.668H28.2666ZM40.6314 11.668V23.8496H39.5514V11.668H40.6314ZM34.1646 12.6113C35.9693 12.625 37.2682 14.2656 37.2682 16.8496C37.2682 19.4336 35.9693 21.0742 34.1646 21.0742C32.3463 21.0742 31.0611 19.4336 31.0611 16.8496C31.0611 14.2656 32.3463 12.625 34.1646 12.6113ZM34.1646 13.5684C32.9479 13.582 32.1002 14.8672 32.1002 16.8496C32.1002 18.832 32.9479 20.1172 34.1646 20.1172C35.3814 20.1172 36.2291 18.832 36.2291 16.8496C36.2291 14.8672 35.3814 13.582 34.1646 13.5684ZM52.3811 11.668V23.8496H51.301V11.668H52.3811ZM48.9357 12.8301V13.7324H44.2326V19.8984C46.5979 19.8984 48.1564 19.8232 49.9748 19.502L50.0842 20.4043C48.1975 20.7461 46.5979 20.8145 44.1369 20.8281H43.1525V12.8301H48.9357ZM57.3768 12.6113C59.0311 12.625 60.2205 14.04 60.3982 16.3164H63.1189V11.668H64.1854V23.8496H63.1189V17.2051H60.4119C60.282 19.584 59.0721 21.0742 57.3768 21.0742C55.5857 21.0742 54.3279 19.4336 54.3279 16.8496C54.3279 14.2656 55.5857 12.625 57.3768 12.6113ZM57.3768 13.5684C56.1736 13.582 55.3533 14.8672 55.3533 16.8496C55.3533 18.832 56.1736 20.1172 57.3768 20.1172C58.5662 20.1172 59.4002 18.832 59.4002 16.8496C59.4002 14.8672 58.5662 13.582 57.3768 13.5684ZM75.265 11.668V16.6172H77.2338V17.5195H75.265V23.8223H74.1986V11.668H75.265ZM72.1205 12.9805C72.1205 16.4258 70.5072 19.5566 66.5424 21.5117L65.9408 20.6641C69.0854 19.0986 70.7943 16.7607 71.0404 13.8828H66.5014V12.9805H72.1205ZM86.9107 12.584V17.957H81.2916V12.584H86.9107ZM82.3443 13.4453V17.082H85.8717V13.4453H82.3443ZM90.274 11.668V14.8398H92.1061V15.7422H90.274V18.873H89.2076V11.668H90.274ZM90.274 19.5293V23.8496H89.2076V20.3906H82.317V19.5293H90.274ZM98.6604 12.584V17.957H93.0412V12.584H98.6604ZM94.0939 13.4453V17.082H97.6213V13.4453H94.0939ZM102.024 11.668V14.8398H103.856V15.7422H102.024V18.873H100.957V11.668H102.024ZM102.024 19.5293V23.8496H100.957V20.3906H94.0666V19.5293H102.024ZM113.678 11.668V16.6855H115.715V17.5742H113.678V23.8223H112.611V11.668H113.678ZM111.435 13.623V14.5117H104.203V13.623H107.334V11.8184H108.4V13.623H111.435ZM107.881 15.5234C109.603 15.5234 110.847 16.6719 110.861 18.3125C110.847 19.9531 109.603 21.1016 107.881 21.1016C106.144 21.1016 104.887 19.9531 104.9 18.3125C104.887 16.6719 106.144 15.5234 107.881 15.5234ZM107.881 16.4258C106.746 16.4258 105.912 17.2188 105.926 18.3125C105.912 19.4199 106.746 20.1992 107.881 20.1855C109.002 20.1992 109.822 19.4199 109.836 18.3125C109.822 17.2188 109.002 16.4258 107.881 16.4258ZM126.056 11.6816V20.5957H124.99V11.6816H126.056ZM126.439 22.6602V23.5625H118.208V19.7754H119.275V22.6602H126.439ZM120.328 13.582C120.314 15.4277 121.585 17.0957 123.39 17.752L122.829 18.6133C121.421 18.0732 120.328 16.9795 119.794 15.5781C119.254 17.0684 118.147 18.2646 116.732 18.832L116.144 17.998C117.99 17.2871 119.234 15.4961 119.234 13.582V12.3652H120.328V13.582ZM137.177 11.668V16.6172H139.146V17.5195H137.177V23.8223H136.11V11.668H137.177ZM134.032 12.9805C134.032 16.4258 132.419 19.5566 128.454 21.5117L127.853 20.6641C130.997 19.0986 132.706 16.7607 132.952 13.8828H128.413V12.9805H134.032ZM150.649 21.3613V22.2637H139.52V21.3613H142.282V18.0801C141.243 17.54 140.614 16.665 140.614 15.5645C140.614 13.6777 142.46 12.4473 145.057 12.4336C147.655 12.4473 149.501 13.6777 149.501 15.5645C149.501 16.6445 148.892 17.5127 147.887 18.0527V21.3613H150.649ZM145.057 13.3223C143.061 13.3086 141.653 14.2109 141.653 15.5645C141.653 16.918 143.061 17.834 145.057 17.834C147.04 17.834 148.462 16.918 148.462 15.5645C148.462 14.2109 147.04 13.3086 145.057 13.3223ZM143.335 21.3613H146.807V18.4629C146.281 18.6064 145.693 18.6816 145.057 18.6816C144.435 18.6816 143.854 18.6133 143.335 18.4766V21.3613ZM153.211 19.8574C153.225 18.0254 153.785 17.4648 154.729 16.8906C155.289 16.5488 155.727 16.002 155.727 15.2363C155.727 14.3066 155.002 13.7188 154.1 13.7188C153.321 13.7188 152.541 14.1836 152.459 15.3047H151.215C151.283 13.6504 152.541 12.6797 154.1 12.6797C155.809 12.6797 156.93 13.7871 156.93 15.291C156.93 16.3574 156.424 17.1094 155.576 17.6289C154.729 18.1484 154.414 18.668 154.387 19.8574V19.9258H153.211V19.8574ZM153.84 22.7969C153.362 22.7969 152.951 22.4004 152.965 21.9082C152.951 21.4297 153.362 21.0332 153.84 21.0332C154.319 21.0332 154.715 21.4297 154.715 21.9082C154.715 22.4004 154.319 22.7969 153.84 22.7969ZM166.443 12.625V13.4316C166.429 14.293 166.429 15.373 166.156 16.7949L165.144 16.6855C165.411 15.3389 165.417 14.334 165.431 13.5137H161.357V12.625H166.443ZM163.845 15.3867V17.8613C164.932 17.8203 166.039 17.7451 166.976 17.6289L167.031 18.4082C165.048 18.7637 162.464 18.8184 160.796 18.8184L160.687 17.916C161.302 17.916 162.04 17.9092 162.833 17.8887V15.3867H163.845ZM171.119 11.6816V20.9102H170.066V16.4531H168.576V20.5547H167.578V11.9004H168.576V15.5508H170.066V11.6816H171.119ZM171.447 22.6602V23.5625H162.874V19.9395H163.968V22.6602H171.447ZM182.048 11.668V14.4297H183.88V15.332H182.048V17.957H180.981V11.668H182.048ZM174.884 19.0781V22.6465C175.588 22.626 176.524 22.5303 177.386 22.2363L177.55 23.0977C176.36 23.4941 175.212 23.5625 174.419 23.5625H173.845V19.0781H174.884ZM183.265 19.2695V20.0762H177.126V19.2695H179.683V18.1895H180.735V19.2695H183.265ZM180.188 20.5137C181.501 20.5273 182.458 21.1699 182.472 22.168C182.458 23.166 181.501 23.8086 180.188 23.8223C178.876 23.8086 177.919 23.166 177.933 22.168C177.919 21.1699 178.876 20.5273 180.188 20.5137ZM180.188 21.2793C179.437 21.2793 178.903 21.6348 178.903 22.168C178.903 22.7012 179.437 23.0566 180.188 23.043C180.94 23.0566 181.487 22.7012 181.487 22.168C181.487 21.6348 180.94 21.2793 180.188 21.2793ZM176.688 14.0469C176.688 15.332 177.987 16.4531 179.751 16.877L179.3 17.7109C177.871 17.3555 176.75 16.5693 176.21 15.5234C175.677 16.7539 174.508 17.6699 173.011 18.0801L172.519 17.2324C174.323 16.7539 175.636 15.5234 175.636 14.0469V13.8145H172.888V12.9258H175.636V11.627H176.716V12.9258H179.437V13.8145H176.688V14.0469ZM187.549 12.6113C189.34 12.625 190.612 14.2656 190.626 16.8496C190.612 19.4336 189.34 21.0742 187.549 21.0742C185.745 21.0742 184.487 19.4336 184.487 16.8496C184.487 14.2656 185.745 12.625 187.549 12.6113ZM187.549 13.5684C186.346 13.582 185.499 14.8672 185.499 16.8496C185.499 18.832 186.346 20.1172 187.549 20.1172C188.766 20.1172 189.587 18.832 189.587 16.8496C189.587 14.8672 188.766 13.582 187.549 13.5684ZM193.702 11.668V16.5215H195.739V17.4512H193.702V23.8223H192.635V11.668H193.702ZM207.174 21.3613V22.2637H196.045V21.3613H198.807V18.0801C197.768 17.54 197.139 16.665 197.139 15.5645C197.139 13.6777 198.985 12.4473 201.582 12.4336C204.18 12.4473 206.026 13.6777 206.026 15.5645C206.026 16.6445 205.417 17.5127 204.412 18.0527V21.3613H207.174ZM201.582 13.3223C199.586 13.3086 198.178 14.2109 198.178 15.5645C198.178 16.918 199.586 17.834 201.582 17.834C203.565 17.834 204.987 16.918 204.987 15.5645C204.987 14.2109 203.565 13.3086 201.582 13.3223ZM199.86 21.3613H203.332V18.4629C202.806 18.6064 202.218 18.6816 201.582 18.6816C200.96 18.6816 200.379 18.6133 199.86 18.4766V21.3613ZM209.763 12.8164L209.668 19.9258H208.519L208.424 12.8164H209.763ZM209.094 22.7969C208.615 22.7969 208.205 22.4004 208.219 21.9082C208.205 21.4297 208.615 21.0332 209.094 21.0332C209.572 21.0332 209.969 21.4297 209.969 21.9082C209.969 22.4004 209.572 22.7969 209.094 22.7969ZM28.8955 31.668V38.1895H27.8291V31.668H28.8955ZM22.0869 38.8047V40.2812H27.8291V38.8047H28.8955V43.6582H21.0205V38.8047H22.0869ZM22.0869 42.7832H27.8291V41.1426H22.0869V42.7832ZM22.333 32.2695C24.1787 32.2559 25.5186 33.3906 25.5186 35.0586C25.5186 36.7129 24.1787 37.8477 22.333 37.8477C20.4873 37.8477 19.1475 36.7129 19.1475 35.0586C19.1475 33.3906 20.4873 32.2559 22.333 32.2695ZM22.333 33.1719C21.0889 33.1582 20.1865 33.9512 20.2002 35.0586C20.1865 36.166 21.0889 36.959 22.333 36.959C23.5635 36.959 24.4658 36.166 24.4658 35.0586C24.4658 33.9512 23.5635 33.1582 22.333 33.1719ZM36.3795 32.4199V35.8242H32.1959V37.7109C34.4791 37.7109 35.6549 37.6768 37.0904 37.4102L37.1998 38.2988C35.6822 38.5449 34.4518 38.5859 31.9908 38.5859H31.1295V35.0039H35.3131V33.2812H31.1021V32.4199H36.3795ZM40.6861 31.6816V39.1465H39.6061V36.8906H37.1861V36.002H39.6061V34.3613H37.1861V33.4863H39.6061V31.6816H40.6861ZM40.6861 39.8027V43.8496H39.6061V40.6777H32.4967V39.8027H40.6861ZM47.9432 38.8047V40.3223H50.158V38.8047H51.1561V43.6582H46.9314V38.8047H47.9432ZM47.9432 42.8105H50.158V41.1426H47.9432V42.8105ZM54.6287 39.7617C54.615 41.0469 55.3807 42.3867 56.8709 42.9336L56.3104 43.7539C55.1893 43.3027 54.451 42.4482 54.0818 41.4297C53.6922 42.4277 52.9539 43.2891 51.8807 43.7539L51.3201 42.9336C52.783 42.332 53.5623 40.9922 53.5623 39.7617V38.7227H54.6287V39.7617ZM48.8729 32.2148C50.4998 32.2148 51.7439 33.1377 51.9764 34.5391H54.5193V31.668H55.5994V38.1074H54.5193V35.4277H51.99C51.7713 36.8633 50.5203 37.8066 48.8729 37.8066C47.0271 37.8066 45.7146 36.6719 45.7146 35.0039C45.7146 33.3496 47.0271 32.2148 48.8729 32.2148ZM48.8729 33.1172C47.6287 33.1172 46.74 33.8965 46.74 35.0039C46.74 36.125 47.6287 36.918 48.8729 36.918C50.1033 36.918 50.9783 36.125 50.9783 35.0039C50.9783 33.8965 50.1033 33.1172 48.8729 33.1172ZM67.2943 31.668V43.8496H66.2143V31.668H67.2943ZM60.8275 32.6113C62.6322 32.625 63.9311 34.2656 63.9311 36.8496C63.9311 39.4336 62.6322 41.0742 60.8275 41.0742C59.0092 41.0742 57.724 39.4336 57.724 36.8496C57.724 34.2656 59.0092 32.625 60.8275 32.6113ZM60.8275 33.5684C59.6107 33.582 58.7631 34.8672 58.7631 36.8496C58.7631 38.832 59.6107 40.1172 60.8275 40.1172C62.0443 40.1172 62.892 38.832 62.892 36.8496C62.892 34.8672 62.0443 33.582 60.8275 33.5684ZM125.323 32.7754V38.3672H119.704V32.7754H125.323ZM120.757 33.6504V37.5059H124.284V33.6504H120.757ZM128.687 31.668V35.373H130.519V36.2754H128.687V40.582H127.62V31.668H128.687ZM129.247 42.6602V43.5625H121.085V39.7344H122.138V42.6602H129.247ZM143.901 34.5938V35.4824H135.602V31.873H136.654V34.5938H143.901ZM145.213 36.5488V37.4238H140.141V38.7227H143.778V41.498H136.586V42.8242H144.215V43.6855H135.506V40.7188H142.725V39.5566H135.479V38.7227H139.102V37.4238H134.084V36.5488H145.213ZM155.91 31.668V43.8496H154.844V37.2461H152.478V36.3438H154.844V31.668H155.91ZM151.74 32.8027V37.0547H147.379V40.0078C149.471 40.0078 150.988 39.9463 152.765 39.6113L152.847 40.5137C151.015 40.8418 149.443 40.9102 147.242 40.9238H146.312V36.166H150.701V33.6914H146.271V32.8027H151.74ZM167.413 37.3691V38.2441H163.654V41.3887H168.726V42.291H157.597V41.3887H162.601V38.2441H159.019V32.666H167.29V33.541H160.099V37.3691H167.413ZM176.065 35.4004C176.065 37.3418 177.063 39.3379 178.731 40.2266L178.102 41.0332C176.892 40.3701 176.017 39.126 175.573 37.6562C175.135 39.2148 174.267 40.5684 173.057 41.2793L172.415 40.4863C174.055 39.5293 175.04 37.4102 175.053 35.4004V34.8398H172.702V33.9512H175.053V32.1191H176.079V33.9512H178.403V34.8398H176.065V35.4004ZM182.956 31.668V43.8223H181.917V37.5059H180.262V43.207H179.237V31.9277H180.262V36.5898H181.917V31.668H182.956ZM186.065 32.2695V36.5352C187.965 36.5283 189.571 36.4326 191.342 36.084L191.506 36.9727C189.592 37.3418 187.938 37.4512 185.914 37.4375H184.985V32.2695H186.065ZM194.336 31.668V37.9707H193.256V34.5938H189.756V33.7188H193.256V31.668H194.336ZM194.336 38.5312V41.4434H187.555V42.7832H194.774V43.6582H186.488V40.6094H193.256V39.4062H186.461V38.5312H194.336ZM205.312 32.502V37.6973H199.693V32.502H205.312ZM200.746 33.377V36.8223H204.273V33.377H200.746ZM208.675 31.668V34.5938H210.507V35.4961H208.675V38.6133H207.609V31.668H208.675ZM208.894 39.3242V40.1992H205.449C205.565 41.498 207.376 42.6328 209.359 42.9473L208.962 43.7812C207.185 43.4873 205.572 42.6055 204.874 41.3887C204.184 42.6123 202.584 43.4805 200.814 43.7676L200.404 42.9473C202.413 42.6328 204.191 41.5186 204.328 40.1992H200.882V39.3242H208.894ZM221.997 37.6836V38.5586H216.979V39.8984H220.644V43.6582H212.276V39.8984H215.927V38.5586H210.923V37.6836H221.997ZM216.979 31.5996V32.8164H220.876V33.6777H217.048C217.123 35.0312 219.058 35.9404 221.341 36.1523L221.026 36.959C219.003 36.7471 217.198 36.0498 216.46 34.8398C215.715 36.0498 213.91 36.7471 211.894 36.959L211.565 36.1523C213.862 35.9404 215.783 35.0312 215.872 33.6777H212.071V32.8164H215.927V31.5996H216.979ZM213.343 40.7598V42.7832H219.591V40.7598H213.343ZM229.563 33.0352V33.9102H222.686V33.0352H225.639V31.5723H226.706V33.0352H229.563ZM226.159 34.5391C227.786 34.5391 228.934 35.4277 228.934 36.7812C228.934 38.1484 227.786 39.0371 226.159 39.0371C224.518 39.0371 223.397 38.1484 223.411 36.7812C223.397 35.4277 224.518 34.5391 226.159 34.5391ZM226.159 35.3457C225.106 35.3594 224.409 35.9336 224.409 36.7812C224.409 37.6426 225.106 38.2031 226.159 38.2031C227.212 38.2031 227.922 37.6426 227.936 36.7812C227.922 35.9336 227.212 35.3594 226.159 35.3457ZM232.749 31.668V39.5293H231.669V37.8477H229.549V36.959H231.669V35.4824H229.563V34.5938H231.669V31.668H232.749ZM228.743 39.6523C231.272 39.6523 232.817 40.4043 232.817 41.7305C232.817 43.0293 231.272 43.7949 228.743 43.7949C226.186 43.7949 224.655 43.0293 224.655 41.7305C224.655 40.4043 226.186 39.6523 228.743 39.6523ZM228.743 40.4863C226.897 40.4863 225.762 40.9375 225.762 41.7305C225.762 42.4961 226.897 42.9609 228.743 42.9609C230.561 42.9609 231.682 42.4961 231.682 41.7305C231.682 40.9375 230.561 40.4863 228.743 40.4863ZM239.959 32.4609C242.502 32.4609 244.403 33.7871 244.403 35.7969C244.403 37.8203 242.502 39.1465 239.959 39.1328C237.416 39.1465 235.516 37.8203 235.516 35.7969C235.516 33.7871 237.416 32.4609 239.959 32.4609ZM239.959 33.3359C238.004 33.3223 236.528 34.3477 236.541 35.7969C236.528 37.2734 238.004 38.2578 239.959 38.2578C241.901 38.2578 243.363 37.2734 243.363 35.7969C243.363 34.3477 241.901 33.3223 239.959 33.3359ZM245.551 41.3066V42.209H234.422V41.3066H245.551ZM257.301 41.416V42.3184H246.172V41.416H251.176V39.1191H247.566V35.373H254.84V33.459H247.539V32.5703H255.892V36.248H248.633V38.2305H256.179V39.1191H252.228V41.416H257.301ZM271.476 31.668V43.8223H270.45V31.668H271.476ZM269.015 31.9688V43.1934H268.003V36.9316H265.952V36.0566H268.003V31.9688H269.015ZM264.653 35.1406C264.653 37.2461 265.597 39.3379 267.278 40.3086L266.622 41.1016C265.426 40.3838 264.578 39.0713 264.161 37.5195C263.717 39.1943 262.835 40.623 261.618 41.3887L260.935 40.582C262.63 39.5703 263.614 37.3555 263.614 35.1406V33.9922H261.276V33.1035H266.882V33.9922H264.653V35.1406ZM282.337 31.668V35.373H284.169V36.2754H282.337V40.6367H281.27V31.668H282.337ZM282.897 42.6602V43.5625H274.735V39.707H275.788V42.6602H282.897ZM276.253 32.5293C278.071 32.5293 279.438 33.7598 279.452 35.5234C279.438 37.2871 278.071 38.5176 276.253 38.5176C274.434 38.5176 273.053 37.2871 273.067 35.5234C273.053 33.7598 274.434 32.5293 276.253 32.5293ZM276.253 33.4727C275.049 33.4727 274.106 34.3203 274.12 35.5234C274.106 36.7266 275.049 37.5742 276.253 37.5742C277.483 37.5742 278.399 36.7266 278.399 35.5234C278.399 34.3203 277.483 33.4727 276.253 33.4727ZM290.654 33.7734V34.6484H284.557V33.7734H287.086V32.0371H288.153V33.7734H290.654ZM287.606 35.4688C289.137 35.4688 290.231 36.6172 290.244 38.2305C290.231 39.8574 289.137 41.0195 287.606 41.0195C286.088 41.0195 284.994 39.8574 284.994 38.2305C284.994 36.6172 286.088 35.4688 287.606 35.4688ZM287.606 36.3711C286.649 36.3848 285.951 37.1641 285.951 38.2305C285.951 39.3105 286.649 40.0898 287.606 40.0762C288.576 40.0898 289.287 39.3105 289.287 38.2305C289.287 37.1641 288.576 36.3848 287.606 36.3711ZM294.934 31.668V43.8223H293.908V37.6836H292.295V43.2207H291.283V31.9688H292.295V36.7949H293.908V31.668H294.934ZM306.15 37.5195V38.4082H297.756V32.8027H306.027V33.6914H298.822V37.5195H306.15ZM307.463 41.2656V42.168H296.334V41.2656H307.463ZM318.146 31.668V43.8496H317.079V38.668H314.55V37.7656H317.079V35.3457H314.646V34.4434H317.079V31.668H318.146ZM313.853 32.7754V37.0957H309.615V40.0898C311.44 40.083 312.951 40.0146 314.796 39.7344L314.892 40.6367C312.951 40.9375 311.392 41.0059 309.451 41.0059H308.548V36.2207H312.8V33.6641H308.507V32.7754H313.853ZM330.962 41.3613V42.2637H319.833V41.3613H322.595V38.0801C321.556 37.54 320.927 36.665 320.927 35.5645C320.927 33.6777 322.772 32.4473 325.37 32.4336C327.968 32.4473 329.813 33.6777 329.813 35.5645C329.813 36.6445 329.205 37.5127 328.2 38.0527V41.3613H330.962ZM325.37 33.3223C323.374 33.3086 321.966 34.2109 321.966 35.5645C321.966 36.918 323.374 37.834 325.37 37.834C327.353 37.834 328.774 36.918 328.774 35.5645C328.774 34.2109 327.353 33.3086 325.37 33.3223ZM323.647 41.3613H327.12V38.4629C326.594 38.6064 326.006 38.6816 325.37 38.6816C324.748 38.6816 324.167 38.6133 323.647 38.4766V41.3613ZM332.868 42.7969C332.389 42.7969 331.979 42.4004 331.993 41.9082C331.979 41.4297 332.389 41.0332 332.868 41.0332C333.346 41.0332 333.743 41.4297 333.743 41.9082C333.743 42.4004 333.346 42.7969 332.868 42.7969Z" fill="#161616"/>
<path d="M75.8092 34.0879C75.8092 35.4277 76.7525 36.7949 78.3111 37.3828L77.7506 38.2031C76.5816 37.752 75.7408 36.8838 75.3033 35.8379C74.8521 37 73.984 38.0322 72.7877 38.5449L72.1998 37.7109C73.7994 37.0137 74.7838 35.4414 74.7838 34.0879V32.4336H75.8092V34.0879ZM82.5084 31.6816V39.1875H81.483V35.8379H79.8697V38.8047H78.858V31.9141H79.8697V34.9492H81.483V31.6816H82.5084ZM78.4889 39.4609C81.0045 39.4609 82.5768 40.2539 82.5768 41.6348C82.5768 43.002 81.0045 43.7949 78.4889 43.7949C75.9596 43.7949 74.401 43.002 74.4146 41.6348C74.401 40.2539 75.9596 39.4609 78.4889 39.4609ZM78.4889 40.2812C76.6295 40.2812 75.4674 40.7871 75.4811 41.6348C75.4674 42.4688 76.6295 42.9609 78.4889 42.9609C80.3346 42.9609 81.4967 42.4688 81.5104 41.6348C81.4967 40.7871 80.3346 40.2812 78.4889 40.2812ZM88.1193 33.582C88.1057 35.3184 89.3361 36.8496 91.1272 37.4512L90.5256 38.2852C89.1857 37.7793 88.133 36.7949 87.6135 35.5098C87.0871 36.9658 85.9729 38.1006 84.51 38.6543L83.9221 37.7793C85.7951 37.123 87.0393 35.5098 87.0529 33.623V32.3652H88.1193V33.582ZM94.0119 31.668V38.873H92.9318V35.168H90.2248V34.2793H92.9318V31.668H94.0119ZM89.9787 39.2285C92.508 39.2285 94.0529 40.0625 94.0529 41.5254C94.0529 42.9746 92.508 43.7949 89.9787 43.7949C87.4494 43.7949 85.9045 42.9746 85.9045 41.5254C85.9045 40.0625 87.4494 39.2285 89.9787 39.2285ZM89.9787 40.0762C88.1193 40.0762 86.9572 40.623 86.9709 41.5254C86.9572 42.4004 88.1193 42.9336 89.9787 42.9336C91.8381 42.9336 92.9865 42.4004 92.9865 41.5254C92.9865 40.623 91.8381 40.0762 89.9787 40.0762ZM105.092 31.668V36.6855H107.129V37.5742H105.092V43.8223H104.025V31.668H105.092ZM102.849 33.623V34.5117H95.617V33.623H98.7478V31.8184H99.8143V33.623H102.849ZM99.2947 35.5234C101.017 35.5234 102.262 36.6719 102.275 38.3125C102.262 39.9531 101.017 41.1016 99.2947 41.1016C97.5584 41.1016 96.3006 39.9531 96.3143 38.3125C96.3006 36.6719 97.5584 35.5234 99.2947 35.5234ZM99.2947 36.4258C98.16 36.4258 97.326 37.2188 97.3396 38.3125C97.326 39.4199 98.16 40.1992 99.2947 40.1855C100.416 40.1992 101.236 39.4199 101.25 38.3125C101.236 37.2188 100.416 36.4258 99.2947 36.4258ZM117.484 31.668V43.8223H116.404V31.668H117.484ZM113.888 32.9941C113.874 36.4941 112.247 39.584 108.173 41.5391L107.585 40.6641C110.873 39.1055 112.548 36.7744 112.794 33.8691H108.146V32.9941H113.888Z" fill="#EF4444"/>
</svg>
