<svg width="24" height="24" viewBox="0 0 24 24" fill="none" xmlns="http://www.w3.org/2000/svg">
<path d="M12.75 20.5C13.3023 20.5 13.75 20.9477 13.75 21.5C13.75 22.0523 13.3023 22.5 12.75 22.5H11.25C10.6977 22.5 10.25 22.0523 10.25 21.5C10.25 20.9477 10.6977 20.5 11.25 20.5H12.75ZM13.6025 18.0049C14.1067 18.0562 14.5 18.4823 14.5 19C14.5 19.5177 14.1067 19.9438 13.6025 19.9951L13.5 20H10.5C9.94772 20 9.5 19.5523 9.5 19C9.5 18.4477 9.94772 18 10.5 18H13.5L13.6025 18.0049ZM12 1.5C16.1051 1.5 19.5 4.71057 19.5 8.75195L19.4873 9.1709C19.3646 11.2522 18.3338 13.0901 16.79 14.3301C16.0924 14.8905 15.6132 15.4714 15.4531 16.1035C15.2586 16.8718 14.5984 17.4265 13.8184 17.4932L13.6602 17.5H10.3398C9.49453 17.5 8.75574 16.9268 8.54688 16.1064L8.4707 15.8701C8.26049 15.3258 7.81485 14.8186 7.20215 14.3252C5.66218 13.0852 4.63518 11.2488 4.5127 9.1709L4.5 8.75195C4.5 4.71057 7.89489 1.5 12 1.5ZM12 3.5C8.92541 3.5 6.5 5.88775 6.5 8.75195L6.50879 9.05078C6.59589 10.5327 7.32694 11.8572 8.45605 12.7666C9.25381 13.409 10.1085 14.2975 10.4521 15.5H13.5459C13.8874 14.2993 14.7403 13.4124 15.5381 12.7715C16.7461 11.8012 17.5 10.3562 17.5 8.75195C17.5 5.88775 15.0746 3.5 12 3.5Z" fill="#F4F4F4"/>
</svg>
