<svg width="182" height="76" viewBox="0 0 182 76" fill="none" xmlns="http://www.w3.org/2000/svg">
<mask id="path-1-inside-1_5617_50976" fill="white">
<path d="M82.4838 8.50001C82.6624 8.8094 82.9925 9 83.3498 9H174C178.418 9 182 12.5817 182 17V68C182 72.4182 178.418 76 174 76H8C3.58174 76 3.70094e-05 72.4182 0 68V17C0 12.5817 3.58172 9 8 9H70.6502C71.0075 9 71.3376 8.8094 71.5162 8.50001L76.134 0.501925C76.5189 -0.164735 77.4811 -0.164734 77.866 0.501925L82.4838 8.50001Z"/>
</mask>
<path d="M82.4838 8.50001C82.6624 8.8094 82.9925 9 83.3498 9H174C178.418 9 182 12.5817 182 17V68C182 72.4182 178.418 76 174 76H8C3.58174 76 3.70094e-05 72.4182 0 68V17C0 12.5817 3.58172 9 8 9H70.6502C71.0075 9 71.3376 8.8094 71.5162 8.50001L76.134 0.501925C76.5189 -0.164735 77.4811 -0.164734 77.866 0.501925L82.4838 8.50001Z" fill="#F4F4F4"/>
<path d="M182 68L183 68V68H182ZM174 76V77V76ZM0 68H-1V68L0 68ZM8 9V8V9ZM71.5162 8.50001L70.6502 8L71.5162 8.50001ZM76.134 0.501925L77 1.00193L76.134 0.501925ZM77.866 0.501925L78.732 0.00191968L77.866 0.501925ZM82.4838 8.50001L83.3498 8L82.4838 8.50001ZM83.3498 9V10H174V9V8H83.3498V9ZM174 9V10C177.866 10 181 13.134 181 17H182H183C183 12.0294 178.971 8 174 8V9ZM182 17H181V68H182H183V17H182ZM182 68L181 68C181 71.866 177.866 75 174 75V76V77C178.971 77 183 72.9705 183 68L182 68ZM174 76V75H8V76V77H174V76ZM8 76V75C4.13404 75 1.00003 71.866 1 68L0 68L-1 68C-0.999958 72.9705 3.02945 77 8 77V76ZM0 68H1V17H0H-1V68H0ZM0 17H1C1 13.134 4.13401 10 8 10V9V8C3.02944 8 -1 12.0294 -1 17H0ZM8 9V10H70.6502V9V8H8V9ZM71.5162 8.50001L72.3822 9.00001L77 1.00193L76.134 0.501925L75.268 0.00191893L70.6502 8L71.5162 8.50001ZM77.866 0.501925L77 1.00193L81.6178 9.00001L82.4838 8.50001L83.3498 8L78.732 0.00191968L77.866 0.501925ZM70.6502 9V10C71.3647 10 72.025 9.61881 72.3822 9.00001L71.5162 8.50001L70.6502 8V9ZM76.134 0.501925L77 1.00193V1.00193L77.866 0.501925L78.732 0.00191968C77.9622 -1.3314 76.0378 -1.3314 75.268 0.00191893L76.134 0.501925ZM83.3498 9V8L82.4838 8.50001L81.6178 9.00001C81.975 9.61881 82.6353 10 83.3498 10V9Z" fill="#E0E0E0" mask="url(#path-1-inside-1_5617_50976)"/>
<path d="M11.1523 21.3398C12.6875 21.3516 13.7773 22.7578 13.7891 24.9727C13.7773 27.1875 12.6875 28.5938 11.1523 28.5938C9.60547 28.5938 8.52734 27.1875 8.52734 24.9727C8.52734 22.7578 9.60547 21.3516 11.1523 21.3398ZM11.1523 22.1602C10.1211 22.1719 9.39453 23.2734 9.39453 24.9727C9.39453 26.6719 10.1211 27.7734 11.1523 27.7734C12.1953 27.7734 12.8984 26.6719 12.8984 24.9727C12.8984 23.2734 12.1953 22.1719 11.1523 22.1602ZM16.4258 20.5312V24.6914H18.1719V25.4883H16.4258V30.9492H15.5117V20.5312H16.4258ZM27.0242 20.5312V30.9727H26.0984V20.5312H27.0242ZM21.4812 21.3398C23.0281 21.3516 24.1414 22.7578 24.1414 24.9727C24.1414 27.1875 23.0281 28.5938 21.4812 28.5938C19.9227 28.5938 18.8211 27.1875 18.8211 24.9727C18.8211 22.7578 19.9227 21.3516 21.4812 21.3398ZM21.4812 22.1602C20.4383 22.1719 19.7117 23.2734 19.7117 24.9727C19.7117 26.6719 20.4383 27.7734 21.4812 27.7734C22.5242 27.7734 23.2508 26.6719 23.2508 24.9727C23.2508 23.2734 22.5242 22.1719 21.4812 22.1602ZM37.0953 20.5312V30.9727H36.1695V20.5312H37.0953ZM34.1422 21.5273V22.3008H30.1109V27.5859C32.1383 27.5859 33.4742 27.5215 35.0328 27.2461L35.1266 28.0195C33.5094 28.3125 32.1383 28.3711 30.0289 28.3828H29.1852V21.5273H34.1422ZM41.3773 21.3398C42.7953 21.3516 43.8148 22.5645 43.9672 24.5156H46.2992V20.5312H47.2133V30.9727H46.2992V25.2773H43.9789C43.8676 27.3164 42.8305 28.5938 41.3773 28.5938C39.8422 28.5938 38.7641 27.1875 38.7641 24.9727C38.7641 22.7578 39.8422 21.3516 41.3773 21.3398ZM41.3773 22.1602C40.3461 22.1719 39.643 23.2734 39.643 24.9727C39.643 26.6719 40.3461 27.7734 41.3773 27.7734C42.3969 27.7734 43.1117 26.6719 43.1117 24.9727C43.1117 23.2734 42.3969 22.1719 41.3773 22.1602ZM56.7102 20.5312V24.7734H58.3977V25.5469H56.7102V30.9492H55.7961V20.5312H56.7102ZM54.0148 21.6562C54.0148 24.6094 52.632 27.293 49.2336 28.9688L48.718 28.2422C51.4133 26.9004 52.8781 24.8965 53.0891 22.4297H49.1984V21.6562H54.0148ZM66.6922 21.3164V25.9219H61.8758V21.3164H66.6922ZM62.7781 22.0547V25.1719H65.8016V22.0547H62.7781ZM69.575 20.5312V23.25H71.1453V24.0234H69.575V26.707H68.6609V20.5312H69.575ZM69.575 27.2695V30.9727H68.6609V28.0078H62.7547V27.2695H69.575ZM76.7633 21.3164V25.9219H71.9469V21.3164H76.7633ZM72.8492 22.0547V25.1719H75.8727V22.0547H72.8492ZM79.6461 20.5312V23.25H81.2164V24.0234H79.6461V26.707H78.732V20.5312H79.6461ZM79.6461 27.2695V30.9727H78.732V28.0078H72.8258V27.2695H79.6461ZM89.6352 20.5312V24.832H91.3812V25.5938H89.6352V30.9492H88.7211V20.5312H89.6352ZM87.7133 22.207V22.9688H81.5141V22.207H84.1977V20.6602H85.1117V22.207H87.7133ZM84.6664 23.8359C86.143 23.8359 87.2094 24.8203 87.2211 26.2266C87.2094 27.6328 86.143 28.6172 84.6664 28.6172C83.1781 28.6172 82.1 27.6328 82.1117 26.2266C82.1 24.8203 83.1781 23.8359 84.6664 23.8359ZM84.6664 24.6094C83.6937 24.6094 82.9789 25.2891 82.9906 26.2266C82.9789 27.1758 83.6937 27.8438 84.6664 27.832C85.6273 27.8438 86.3305 27.1758 86.3422 26.2266C86.3305 25.2891 85.6273 24.6094 84.6664 24.6094ZM100.245 20.543V28.1836H99.3313V20.543H100.245ZM100.573 29.9531V30.7266H93.5188V27.4805H94.4328V29.9531H100.573ZM95.3352 22.1719C95.3234 23.7539 96.4133 25.1836 97.9602 25.7461L97.4797 26.4844C96.2727 26.0215 95.3352 25.084 94.8781 23.8828C94.4152 25.1602 93.466 26.1855 92.2531 26.6719L91.7492 25.957C93.3313 25.3477 94.3977 23.8125 94.3977 22.1719V21.1289H95.3352V22.1719ZM109.777 20.5312V24.7734H111.465V25.5469H109.777V30.9492H108.863V20.5312H109.777ZM107.082 21.6562C107.082 24.6094 105.699 27.293 102.301 28.9688L101.785 28.2422C104.48 26.9004 105.945 24.8965 106.156 22.4297H102.266V21.6562H107.082ZM121.325 28.8398V29.6133H111.786V28.8398H114.153V26.0273C113.262 25.5645 112.723 24.8145 112.723 23.8711C112.723 22.2539 114.305 21.1992 116.532 21.1875C118.759 21.1992 120.341 22.2539 120.341 23.8711C120.341 24.7969 119.819 25.541 118.958 26.0039V28.8398H121.325ZM116.532 21.9492C114.821 21.9375 113.614 22.7109 113.614 23.8711C113.614 25.0312 114.821 25.8164 116.532 25.8164C118.231 25.8164 119.45 25.0312 119.45 23.8711C119.45 22.7109 118.231 21.9375 116.532 21.9492ZM115.055 28.8398H118.032V26.3555C117.581 26.4785 117.077 26.543 116.532 26.543C115.999 26.543 115.501 26.4844 115.055 26.3672V28.8398ZM123.521 27.5508C123.533 25.9805 124.013 25.5 124.822 25.0078C125.302 24.7148 125.677 24.2461 125.677 23.5898C125.677 22.793 125.056 22.2891 124.283 22.2891C123.615 22.2891 122.947 22.6875 122.877 23.6484H121.81C121.869 22.2305 122.947 21.3984 124.283 21.3984C125.748 21.3984 126.709 22.3477 126.709 23.6367C126.709 24.5508 126.275 25.1953 125.548 25.6406C124.822 26.0859 124.552 26.5312 124.529 27.5508V27.6094H123.521V27.5508ZM124.06 30.0703C123.65 30.0703 123.298 29.7305 123.31 29.3086C123.298 28.8984 123.65 28.5586 124.06 28.5586C124.47 28.5586 124.81 28.8984 124.81 29.3086C124.81 29.7305 124.47 30.0703 124.06 30.0703ZM134.863 21.3516V22.043C134.851 22.7812 134.851 23.707 134.616 24.9258L133.749 24.832C133.978 23.6777 133.984 22.8164 133.995 22.1133H130.503V21.3516H134.863ZM132.636 23.7188V25.8398C133.568 25.8047 134.517 25.7402 135.32 25.6406L135.366 26.3086C133.667 26.6133 131.452 26.6602 130.023 26.6602L129.929 25.8867C130.456 25.8867 131.089 25.8809 131.769 25.8633V23.7188H132.636ZM138.87 20.543V28.4531H137.968V24.6328H136.691V28.1484H135.835V20.7305H136.691V23.8594H137.968V20.543H138.87ZM139.152 29.9531V30.7266H131.804V27.6211H132.741V29.9531H139.152ZM148.238 20.5312V22.8984H149.809V23.6719H148.238V25.9219H147.324V20.5312H148.238ZM142.098 26.8828V29.9414C142.701 29.9238 143.504 29.8418 144.242 29.5898L144.383 30.3281C143.363 30.668 142.379 30.7266 141.699 30.7266H141.207V26.8828H142.098ZM149.281 27.0469V27.7383H144.02V27.0469H146.211V26.1211H147.113V27.0469H149.281ZM146.645 28.1133C147.77 28.125 148.59 28.6758 148.602 29.5312C148.59 30.3867 147.77 30.9375 146.645 30.9492C145.52 30.9375 144.699 30.3867 144.711 29.5312C144.699 28.6758 145.52 28.125 146.645 28.1133ZM146.645 28.7695C146 28.7695 145.543 29.0742 145.543 29.5312C145.543 29.9883 146 30.293 146.645 30.2812C147.289 30.293 147.758 29.9883 147.758 29.5312C147.758 29.0742 147.289 28.7695 146.645 28.7695ZM143.645 22.5703C143.645 23.6719 144.758 24.6328 146.27 24.9961L145.883 25.7109C144.658 25.4062 143.697 24.7324 143.234 23.8359C142.777 24.8906 141.775 25.6758 140.492 26.0273L140.07 25.3008C141.617 24.8906 142.742 23.8359 142.742 22.5703V22.3711H140.387V21.6094H142.742V20.4961H143.668V21.6094H146V22.3711H143.645V22.5703ZM152.954 21.3398C154.489 21.3516 155.579 22.7578 155.591 24.9727C155.579 27.1875 154.489 28.5938 152.954 28.5938C151.407 28.5938 150.329 27.1875 150.329 24.9727C150.329 22.7578 151.407 21.3516 152.954 21.3398ZM152.954 22.1602C151.923 22.1719 151.196 23.2734 151.196 24.9727C151.196 26.6719 151.923 27.7734 152.954 27.7734C153.997 27.7734 154.7 26.6719 154.7 24.9727C154.7 23.2734 153.997 22.1719 152.954 22.1602ZM158.227 20.5312V24.6914H159.973V25.4883H158.227V30.9492H157.313V20.5312H158.227ZM169.775 28.8398V29.6133H160.236V28.8398H162.603V26.0273C161.712 25.5645 161.173 24.8145 161.173 23.8711C161.173 22.2539 162.755 21.1992 164.982 21.1875C167.209 21.1992 168.791 22.2539 168.791 23.8711C168.791 24.7969 168.269 25.541 167.408 26.0039V28.8398H169.775ZM164.982 21.9492C163.271 21.9375 162.064 22.7109 162.064 23.8711C162.064 25.0312 163.271 25.8164 164.982 25.8164C166.681 25.8164 167.9 25.0312 167.9 23.8711C167.9 22.7109 166.681 21.9375 164.982 21.9492ZM163.505 28.8398H166.482V26.3555C166.031 26.4785 165.527 26.543 164.982 26.543C164.449 26.543 163.951 26.4844 163.505 26.3672V28.8398ZM171.995 21.5156L171.913 27.6094H170.928L170.846 21.5156H171.995ZM171.42 30.0703C171.01 30.0703 170.659 29.7305 170.67 29.3086C170.659 28.8984 171.01 28.5586 171.42 28.5586C171.83 28.5586 172.17 28.8984 172.17 29.3086C172.17 29.7305 171.83 30.0703 171.42 30.0703ZM16.9648 37.5312V43.1211H16.0508V37.5312H16.9648ZM11.1289 43.6484V44.9141H16.0508V43.6484H16.9648V47.8086H10.2148V43.6484H11.1289ZM11.1289 47.0586H16.0508V45.6523H11.1289V47.0586ZM11.3398 38.0469C12.9219 38.0352 14.0703 39.0078 14.0703 40.4375C14.0703 41.8555 12.9219 42.8281 11.3398 42.8281C9.75781 42.8281 8.60938 41.8555 8.60938 40.4375C8.60938 39.0078 9.75781 38.0352 11.3398 38.0469ZM11.3398 38.8203C10.2734 38.8086 9.5 39.4883 9.51172 40.4375C9.5 41.3867 10.2734 42.0664 11.3398 42.0664C12.3945 42.0664 13.168 41.3867 13.168 40.4375C13.168 39.4883 12.3945 38.8086 11.3398 38.8203ZM23.3797 38.1758V41.0938H19.7937V42.7109C21.7508 42.7109 22.7586 42.6816 23.9891 42.4531L24.0828 43.2148C22.782 43.4258 21.7273 43.4609 19.618 43.4609H18.8797V40.3906H22.4656V38.9141H18.8562V38.1758H23.3797ZM27.0711 37.543V43.9414H26.1453V42.0078H24.0711V41.2461H26.1453V39.8398H24.0711V39.0898H26.1453V37.543H27.0711ZM27.0711 44.5039V47.9727H26.1453V45.2539H20.0516V44.5039H27.0711ZM33.2914 43.6484V44.9492H35.1898V43.6484H36.0453V47.8086H32.4242V43.6484H33.2914ZM33.2914 47.082H35.1898V45.6523H33.2914V47.082ZM39.0219 44.4688C39.0102 45.5703 39.6664 46.7188 40.9438 47.1875L40.4633 47.8906C39.5023 47.5039 38.8695 46.7715 38.5531 45.8984C38.2191 46.7539 37.5863 47.4922 36.6664 47.8906L36.1859 47.1875C37.4398 46.6719 38.1078 45.5234 38.1078 44.4688V43.5781H39.0219V44.4688ZM34.0883 38C35.4828 38 36.5492 38.791 36.7484 39.9922H38.9281V37.5312H39.8539V43.0508H38.9281V40.7539H36.7602C36.5727 41.9844 35.5004 42.793 34.0883 42.793C32.5063 42.793 31.3813 41.8203 31.3813 40.3906C31.3813 38.9727 32.5063 38 34.0883 38ZM34.0883 38.7734C33.0219 38.7734 32.2602 39.4414 32.2602 40.3906C32.2602 41.3516 33.0219 42.0312 34.0883 42.0312C35.143 42.0312 35.893 41.3516 35.893 40.3906C35.893 39.4414 35.143 38.7734 34.0883 38.7734ZM49.8781 37.5312V47.9727H48.9523V37.5312H49.8781ZM44.3352 38.3398C45.882 38.3516 46.9953 39.7578 46.9953 41.9727C46.9953 44.1875 45.882 45.5938 44.3352 45.5938C42.7766 45.5938 41.675 44.1875 41.675 41.9727C41.675 39.7578 42.7766 38.3516 44.3352 38.3398ZM44.3352 39.1602C43.2922 39.1719 42.5656 40.2734 42.5656 41.9727C42.5656 43.6719 43.2922 44.7734 44.3352 44.7734C45.3781 44.7734 46.1047 43.6719 46.1047 41.9727C46.1047 40.2734 45.3781 39.1719 44.3352 39.1602ZM99.6172 38.4805V43.2734H94.8008V38.4805H99.6172ZM95.7031 39.2305V42.5352H98.7266V39.2305H95.7031ZM102.5 37.5312V40.707H104.07V41.4805H102.5V45.1719H101.586V37.5312H102.5ZM102.98 46.9531V47.7266H95.9844V44.4453H96.8867V46.9531H102.98ZM115.541 40.0391V40.8008H108.427V37.707H109.33V40.0391H115.541ZM116.666 41.7148V42.4648H112.318V43.5781H115.435V45.957H109.271V47.0938H115.81V47.832H108.345V45.2891H114.533V44.293H108.322V43.5781H111.427V42.4648H107.127V41.7148H116.666ZM125.834 37.5312V47.9727H124.92V42.3125H122.893V41.5391H124.92V37.5312H125.834ZM122.26 38.5039V42.1484H118.522V44.6797C120.315 44.6797 121.616 44.627 123.139 44.3398L123.209 45.1133C121.639 45.3945 120.291 45.4531 118.405 45.4648H117.608V41.3867H121.37V39.2656H117.573V38.5039H122.26ZM135.695 42.418V43.168H132.472V45.8633H136.82V46.6367H127.28V45.8633H131.57V43.168H128.499V38.3867H135.589V39.1367H129.425V42.418H135.695ZM11.4102 57.7305C11.4102 59.3945 12.2656 61.1055 13.6953 61.8672L13.1562 62.5586C12.1191 61.9902 11.3691 60.9238 10.9883 59.6641C10.6133 61 9.86914 62.1602 8.83203 62.7695L8.28125 62.0898C9.6875 61.2695 10.5312 59.4531 10.543 57.7305V57.25H8.52734V56.4883H10.543V54.918H11.4219V56.4883H13.4141V57.25H11.4102V57.7305ZM17.3164 54.5312V64.9492H16.4258V59.5352H15.0078V64.4219H14.1289V54.7539H15.0078V58.75H16.4258V54.5312H17.3164ZM19.9812 55.0469V58.7031C21.6102 58.6973 22.9871 58.6152 24.5047 58.3164L24.6453 59.0781C23.0047 59.3945 21.5867 59.4883 19.8523 59.4766H19.0555V55.0469H19.9812ZM27.0711 54.5312V59.9336H26.1453V57.0391H23.1453V56.2891H26.1453V54.5312H27.0711ZM27.0711 60.4141V62.9102H21.2586V64.0586H27.4461V64.8086H20.3445V62.1953H26.1453V61.1641H20.3211V60.4141H27.0711ZM36.4789 55.2461V59.6992H31.6625V55.2461H36.4789ZM32.5648 55.9961V58.9492H35.5883V55.9961H32.5648ZM39.3617 54.5312V57.0391H40.932V57.8125H39.3617V60.4844H38.4477V54.5312H39.3617ZM39.5492 61.0938V61.8438H36.5961C36.6957 62.957 38.2484 63.9297 39.9477 64.1992L39.6078 64.9141C38.0844 64.6621 36.7016 63.9062 36.1039 62.8633C35.5121 63.9121 34.141 64.6562 32.6234 64.9023L32.2719 64.1992C33.9945 63.9297 35.518 62.9746 35.6352 61.8438H32.682V61.0938H39.5492ZM50.7805 59.6875V60.4375H46.4797V61.5859H49.6203V64.8086H42.4484V61.5859H45.5773V60.4375H41.2883V59.6875H50.7805ZM46.4797 54.4727V55.5156H49.8195V56.2539H46.5383C46.6027 57.4141 48.2609 58.1934 50.218 58.375L49.9484 59.0664C48.2141 58.8848 46.6672 58.2871 46.0344 57.25C45.3957 58.2871 43.8488 58.8848 42.1203 59.0664L41.8391 58.375C43.8078 58.1934 45.4543 57.4141 45.5305 56.2539H42.2727V55.5156H45.5773V54.4727H46.4797ZM43.3625 62.3242V64.0586H48.718V62.3242H43.3625ZM57.2656 55.7031V56.4531H51.3711V55.7031H53.9023V54.4492H54.8164V55.7031H57.2656ZM54.3477 56.9922C55.7422 56.9922 56.7266 57.7539 56.7266 58.9141C56.7266 60.0859 55.7422 60.8477 54.3477 60.8477C52.9414 60.8477 51.9805 60.0859 51.9922 58.9141C51.9805 57.7539 52.9414 56.9922 54.3477 56.9922ZM54.3477 57.6836C53.4453 57.6953 52.8477 58.1875 52.8477 58.9141C52.8477 59.6523 53.4453 60.1328 54.3477 60.1328C55.25 60.1328 55.8594 59.6523 55.8711 58.9141C55.8594 58.1875 55.25 57.6953 54.3477 57.6836ZM59.9961 54.5312V61.2695H59.0703V59.8281H57.2539V59.0664H59.0703V57.8008H57.2656V57.0391H59.0703V54.5312H59.9961ZM56.5625 61.375C58.7305 61.375 60.0547 62.0195 60.0547 63.1562C60.0547 64.2695 58.7305 64.9258 56.5625 64.9258C54.3711 64.9258 53.0586 64.2695 53.0586 63.1562C53.0586 62.0195 54.3711 61.375 56.5625 61.375ZM56.5625 62.0898C54.9805 62.0898 54.0078 62.4766 54.0078 63.1562C54.0078 63.8125 54.9805 64.2109 56.5625 64.2109C58.1211 64.2109 59.082 63.8125 59.082 63.1562C59.082 62.4766 58.1211 62.0898 56.5625 62.0898ZM66.1766 55.2109C68.3563 55.2109 69.9852 56.3477 69.9852 58.0703C69.9852 59.8047 68.3563 60.9414 66.1766 60.9297C63.9969 60.9414 62.368 59.8047 62.368 58.0703C62.368 56.3477 63.9969 55.2109 66.1766 55.2109ZM66.1766 55.9609C64.5008 55.9492 63.2352 56.8281 63.2469 58.0703C63.2352 59.3359 64.5008 60.1797 66.1766 60.1797C67.8406 60.1797 69.0945 59.3359 69.0945 58.0703C69.0945 56.8281 67.8406 55.9492 66.1766 55.9609ZM70.9695 62.793V63.5664H61.4305V62.793H70.9695ZM81.0406 62.8867V63.6602H71.5016V62.8867H75.7906V60.918H72.6969V57.707H78.9313V56.0664H72.6734V55.3047H79.8336V58.457H73.6109V60.1562H80.0797V60.918H76.693V62.8867H81.0406ZM93.1906 54.5312V64.9492H92.3117V54.5312H93.1906ZM91.0813 54.7891V64.4102H90.2141V59.043H88.4563V58.293H90.2141V54.7891H91.0813ZM87.343 57.5078C87.343 59.3125 88.1516 61.1055 89.593 61.9375L89.0305 62.6172C88.0051 62.002 87.2785 60.877 86.9211 59.5469C86.5402 60.9824 85.7844 62.207 84.7414 62.8633L84.1555 62.1719C85.6086 61.3047 86.4523 59.4062 86.4523 57.5078V56.5234H84.4484V55.7617H89.2531V56.5234H87.343V57.5078ZM102.5 54.5312V57.707H104.07V58.4805H102.5V62.2188H101.586V54.5312H102.5ZM102.98 63.9531V64.7266H95.9844V61.4219H96.8867V63.9531H102.98ZM97.2852 55.2695C98.8438 55.2695 100.016 56.3242 100.027 57.8359C100.016 59.3477 98.8438 60.4023 97.2852 60.4023C95.7266 60.4023 94.543 59.3477 94.5547 57.8359C94.543 56.3242 95.7266 55.2695 97.2852 55.2695ZM97.2852 56.0781C96.2539 56.0781 95.4453 56.8047 95.457 57.8359C95.4453 58.8672 96.2539 59.5938 97.2852 59.5938C98.3398 59.5938 99.125 58.8672 99.125 57.8359C99.125 56.8047 98.3398 56.0781 97.2852 56.0781ZM109.63 56.3359V57.0859H104.403V56.3359H106.571V54.8477H107.485V56.3359H109.63ZM107.016 57.7891C108.329 57.7891 109.266 58.7734 109.278 60.1562C109.266 61.5508 108.329 62.5469 107.016 62.5469C105.716 62.5469 104.778 61.5508 104.778 60.1562C104.778 58.7734 105.716 57.7891 107.016 57.7891ZM107.016 58.5625C106.196 58.5742 105.598 59.2422 105.598 60.1562C105.598 61.082 106.196 61.75 107.016 61.7383C107.848 61.75 108.458 61.082 108.458 60.1562C108.458 59.2422 107.848 58.5742 107.016 58.5625ZM113.298 54.5312V64.9492H112.419V59.6875H111.036V64.4336H110.169V54.7891H111.036V58.9258H112.419V54.5312H113.298ZM122.912 59.5469V60.3086H115.716V55.5039H122.806V56.2656H116.63V59.5469H122.912ZM124.037 62.7578V63.5312H114.498V62.7578H124.037ZM133.194 54.5312V64.9727H132.28V60.5312H130.112V59.7578H132.28V57.6836H130.194V56.9102H132.28V54.5312H133.194ZM129.514 55.4805V59.1836H125.881V61.75C127.446 61.7441 128.741 61.6855 130.323 61.4453L130.405 62.2188C128.741 62.4766 127.405 62.5352 125.741 62.5352H124.967V58.4336H128.612V56.2422H124.932V55.4805H129.514ZM144.179 62.8398V63.6133H134.64V62.8398H137.007V60.0273C136.116 59.5645 135.577 58.8145 135.577 57.8711C135.577 56.2539 137.159 55.1992 139.386 55.1875C141.613 55.1992 143.195 56.2539 143.195 57.8711C143.195 58.7969 142.673 59.541 141.812 60.0039V62.8398H144.179ZM139.386 55.9492C137.675 55.9375 136.468 56.7109 136.468 57.8711C136.468 59.0312 137.675 59.8164 139.386 59.8164C141.085 59.8164 142.304 59.0312 142.304 57.8711C142.304 56.7109 141.085 55.9375 139.386 55.9492ZM137.909 62.8398H140.886V60.3555C140.435 60.4785 139.931 60.543 139.386 60.543C138.853 60.543 138.355 60.4844 137.909 60.3672V62.8398ZM145.812 64.0703C145.402 64.0703 145.051 63.7305 145.062 63.3086C145.051 62.8984 145.402 62.5586 145.812 62.5586C146.223 62.5586 146.562 62.8984 146.562 63.3086C146.562 63.7305 146.223 64.0703 145.812 64.0703Z" fill="#161616"/>
<path d="M57.2469 39.5117C57.2469 40.6602 57.9852 41.8203 59.3445 42.3359L58.7586 43.1914C57.7801 42.8164 57.0945 42.1016 56.7195 41.2344C56.3328 42.2129 55.6121 43.0625 54.5984 43.4961L53.9891 42.6289C55.407 42.0078 56.1688 40.6836 56.1688 39.5117V38.1523H57.2469V39.5117ZM62.9891 37.5078V43.9648H61.9344V41.1523H60.7039V43.6367H59.6727V37.6953H60.7039V40.2383H61.9344V37.5078H62.9891ZM59.4734 44.1641C61.6648 44.1641 63.0359 44.8789 63.0477 46.0742C63.0359 47.2695 61.6648 47.9844 59.4734 47.9727C57.282 47.9844 55.9109 47.2695 55.9227 46.0742C55.9109 44.8789 57.282 44.1641 59.4734 44.1641ZM59.4734 45.0195C57.95 45.0195 57.0125 45.4062 57.0242 46.0742C57.0125 46.7422 57.95 47.1289 59.4734 47.1172C60.9969 47.1289 61.9227 46.7422 61.9344 46.0742C61.9227 45.4062 60.9969 45.0195 59.4734 45.0195ZM67.8336 39.0664C67.8336 40.543 68.7828 41.8555 70.3766 42.3711L69.7672 43.2383C68.6129 42.8223 67.7633 42.0137 67.3063 40.9648C66.8492 42.166 65.9352 43.0977 64.6695 43.5547L64.0719 42.6641C65.7477 42.0898 66.7203 40.6953 66.732 39.1133V38.082H67.8336V39.0664ZM72.8609 37.4961V43.6953H71.7477V40.543H69.5328V39.6289H71.7477V37.4961H72.8609ZM69.3453 43.9883C71.5484 43.9883 72.8961 44.7148 72.8961 45.9922C72.8961 47.2578 71.5484 47.9844 69.3453 47.9727C67.1422 47.9844 65.7828 47.2578 65.7945 45.9922C65.7828 44.7148 67.1422 43.9883 69.3453 43.9883ZM69.3453 44.8555C67.8102 44.8555 66.8961 45.2656 66.8961 45.9922C66.8961 46.6953 67.8102 47.0938 69.3453 47.0938C70.8805 47.0938 71.7945 46.6953 71.7945 45.9922C71.7945 45.2656 70.8805 44.8555 69.3453 44.8555ZM82.3578 37.4961V41.75H84.0453V42.6758H82.3578V47.9961H81.2562V37.4961H82.3578ZM80.3422 39.1367V40.0508H74.1195V39.1367H76.7094V37.6367H77.8227V39.1367H80.3422ZM77.2719 40.8242C78.7719 40.8242 79.8734 41.832 79.8852 43.2617C79.8734 44.7031 78.7719 45.6992 77.2719 45.7109C75.7602 45.6992 74.6586 44.7031 74.6586 43.2617C74.6586 41.832 75.7602 40.8242 77.2719 40.8242ZM77.2719 41.7383C76.3812 41.7383 75.7133 42.3594 75.725 43.2617C75.7133 44.1758 76.3812 44.7852 77.2719 44.7734C78.1625 44.7852 78.8187 44.1758 78.8187 43.2617C78.8187 42.3594 78.1625 41.7383 77.2719 41.7383ZM92.9797 37.4961V47.9961H91.8547V37.4961H92.9797ZM89.8508 38.6211C89.8508 41.6914 88.5383 44.3633 84.9406 46.0859L84.3547 45.1836C87.1496 43.8535 88.509 41.9609 88.7258 39.5117H84.8586V38.6211H89.8508Z" fill="#FA4D56"/>
</svg>
